<svg xmlns="http://www.w3.org/2000/svg" viewBox="0 0 640 420" fill="none">
  <rect width="640" height="420" fill="#1a1a1a"/>
  <rect x="0.5" y="0.5" width="639" height="419" stroke="#2e2e2e"/>

  <text x="320" y="28" fill="#8a8680" font-family="Consolas, monospace" font-size="12" text-anchor="middle">record / train / infer loop</text>

  <!-- boxes -->
  <rect x="220" y="48" width="200" height="44" rx="2" fill="#141414" stroke="#2e2e2e"/>
  <text x="320" y="75" fill="#6ee7a8" font-family="Consolas, monospace" font-size="13" text-anchor="middle">physics_step()</text>

  <rect x="220" y="128" width="200" height="44" rx="2" fill="#141414" stroke="#2e2e2e"/>
  <text x="320" y="155" fill="#e8e4dc" font-family="Consolas, monospace" font-size="13" text-anchor="middle">training records</text>
  <text x="320" y="172" fill="#8a8680" font-family="Consolas, monospace" font-size="10" text-anchor="middle">500k x 90 bytes</text>

  <rect x="220" y="208" width="200" height="44" rx="2" fill="#141414" stroke="#2e2e2e"/>
  <text x="320" y="235" fill="#f4a261" font-family="Consolas, monospace" font-size="13" text-anchor="middle">train.py</text>

  <rect x="220" y="288" width="200" height="44" rx="2" fill="#141414" stroke="#2e2e2e"/>
  <text x="320" y="315" fill="#e8e4dc" font-family="Consolas, monospace" font-size="13" text-anchor="middle">model_q8_h24_p3.bin</text>
  <text x="320" y="332" fill="#8a8680" font-family="Consolas, monospace" font-size="10" text-anchor="middle">~1 KB int8 MLP</text>

  <rect x="220" y="368" width="200" height="44" rx="2" fill="#141414" stroke="#2e2e2e"/>
  <text x="320" y="395" fill="#6ee7a8" font-family="Consolas, monospace" font-size="13" text-anchor="middle">neural_physics_step()</text>

  <!-- side labels -->
  <text x="48" y="75" fill="#8a8680" font-family="Consolas, monospace" font-size="11">analytic</text>
  <text x="48" y="90" fill="#8a8680" font-family="Consolas, monospace" font-size="11">teacher</text>

  <text x="472" y="395" fill="#8a8680" font-family="Consolas, monospace" font-size="11">same game</text>
  <text x="472" y="410" fill="#8a8680" font-family="Consolas, monospace" font-size="11">loop, Tab swap</text>

  <!-- arrows -->
  <line x1="320" y1="92" x2="320" y2="124" stroke="#2e2e2e" stroke-width="2"/>
  <polygon points="320,124 315,114 325,114" fill="#2e2e2e"/>
  <text x="338" y="112" fill="#8a8680" font-family="Consolas, monospace" font-size="10">records</text>

  <line x1="320" y1="172" x2="320" y2="204" stroke="#2e2e2e" stroke-width="2"/>
  <polygon points="320,204 315,194 325,194" fill="#2e2e2e"/>
  <text x="338" y="192" fill="#8a8680" font-family="Consolas, monospace" font-size="10">train</text>

  <line x1="320" y1="252" x2="320" y2="284" stroke="#2e2e2e" stroke-width="2"/>
  <polygon points="320,284 315,274 325,274" fill="#2e2e2e"/>
  <text x="338" y="272" fill="#8a8680" font-family="Consolas, monospace" font-size="10">export</text>

  <line x1="320" y1="332" x2="320" y2="364" stroke="#2e2e2e" stroke-width="2"/>
  <polygon points="320,364 315,354 325,354" fill="#2e2e2e"/>
  <text x="338" y="352" fill="#8a8680" font-family="Consolas, monospace" font-size="10">C loader</text>
</svg>
